# xmcd
#
# Track frame offsets:
#	150
#	14853
#	29497
#	42526
#	54560
#	67729
#	79662
#	93605
#	106673
#	122505
#	135578
#	149661
#	161918
#	174556
#	186563
#	199711
#	212093
#	225180
#	238921
#	252550
#	264899
#	277093
#	290718
#	302699
#	314995
#
# Disc length: 4374 seconds
#
# Revision: 0
# Processed by: cddbd v1.5.2PL0 Copyright (c) Steve Scherf et al.
# Submitted via: audiograbber 1.83.01
#
DISCID=84111419
DTITLE=T-Bone Walker - T-Bone Blues 1949-1954 CD1
DYEAR=1954
DGENRE=Blues 50´s
TTITLE0=T-Bone Blues 
TTITLE1=I Got A Break, Baby 
TTITLE2=Mean Old World
TTITLE3=Sail On Boogie
TTITLE4=I'm Still In Love With You
TTITLE5=You Don't Love Me Blues 
TTITLE6=T-Bone Boogie 
TTITLE7=Mean Old World Blues
TTITLE8=Evening
TTITLE9=My Baby Left Me
TTITLE10=Come Back To Me Baby Blues 
TTITLE11=No Worry Blues
TTITLE12=Don't Leave Me Baby
TTITLE13=Bobby Sox Blues
TTITLE14=I'm Gonna Find My Baby
TTITLE15=I'm In An Awful Mood
TTITLE16=It's A Low Down Dirty Deal
TTITLE17=Don't Give Me The Runaround
TTITLE18=Hard Pain Blues 
TTITLE19=I Know Your Wig Is Gone
TTITLE20=T-Bone Jumps Again
TTITLE21=I Call It Stormy Monday (But Tuesday Is Just As Bad)
TTITLE22=She's My Old Time Used To Me
TTITLE23=Midnight Blues 
TTITLE24=Long Lost Lover Blues
EXTD=
EXTT0=
EXTT1=
EXTT2=
EXTT3=
EXTT4=
EXTT5=
EXTT6=
EXTT7=
EXTT8=
EXTT9=
EXTT10=
EXTT11=
EXTT12=
EXTT13=
EXTT14=
EXTT15=
EXTT16=
EXTT17=
EXTT18=
EXTT19=
EXTT20=
EXTT21=
EXTT22=
EXTT23=
EXTT24=
PLAYORDER=
